<?xml version="1.0" encoding="utf-8"?>
<!-- Generator: Adobe Illustrator 16.0.0, SVG Export Plug-In . SVG Version: 6.00 Build 0)  -->
<!DOCTYPE svg PUBLIC "-//W3C//DTD SVG 1.1//EN" "http://www.w3.org/Graphics/SVG/1.1/DTD/svg11.dtd">
<svg version="1.1" id="图层_1" xmlns="http://www.w3.org/2000/svg" xmlns:xlink="http://www.w3.org/1999/xlink" x="0px" y="0px"
	 width="36px" height="34px" viewBox="0 0 36 34" preserveAspectRatio="none meet" enable-background="new 0 0 36 34" xml:space="preserve">
<rect fill="none" width="36" height="34"/>
<g>
	<path fill="#E8B03D" d="M32.173,17c0,3.914-3.172,7.087-7.086,7.087H10.913c-3.914,0-7.086-3.173-7.086-7.087l0,0
		c0-3.913,3.172-7.086,7.086-7.086h14.174C29.001,9.914,32.173,13.086,32.173,17L32.173,17z"/>
	<g>
		<path d="M16.034,25.523l0.739-0.041c2.194-0.12,4.919-1.926,5.583-2.592c0.094-0.091,0.187-0.211,0.285-0.366l0.095-0.146
			c0.035,0.004,0.066,0.02,0.104,0.02c0.051,0,0.104-0.005,0.155-0.015h0.018l0.04-0.013l0.03-0.006
			c0.126-0.03,0.212-0.051,0.3-0.075l0.07-0.02h0.002l0.042-0.012c0.085-0.025,0.169-0.049,0.254-0.077
			c0.042-0.013,0.086-0.028,0.13-0.043c0.081-0.026,0.165-0.056,0.249-0.087l0.059-0.021l0.058-0.021
			c0.103-0.039,0.204-0.078,0.306-0.119l0.057-0.023c0.127-0.051,0.251-0.104,0.376-0.16c0.139-0.062,0.252-0.113,0.362-0.165
			l0.002-0.001l0.064-0.031l0.299-0.144l0,0l0.053-0.026c0.109-0.054,0.215-0.109,0.32-0.163c0.105-0.055,0.202-0.105,0.294-0.155
			c0.479-0.258,0.877-0.492,1.125-0.644c0.308-0.187,0.52-0.498,0.583-0.852c0.129-0.72,0.299-2.188,0.391-3.016
			c0.026-0.085,0.035-0.173,0.028-0.263l0.003-0.024c0,0,0.041-0.007-0.044-0.176c-0.084-0.168-0.152-0.258-0.152-0.258
			c-0.067-0.075-0.146-0.155-0.239-0.239c-0.2-0.157-0.406-0.298-0.608-0.418c-0.097-0.058-0.197-0.117-0.299-0.169
			c-0.013-0.007-0.024-0.014-0.039-0.021c0.12-1.37,0.037-4.532-2.965-6.033c-0.053-0.023-1.03-0.435-2.408-0.435
			c-0.136,0-0.274,0.004-0.417,0.013C21.229,8.497,21.114,8.507,21,8.521c-0.059,0.006-0.12,0.014-0.184,0.022l-0.185,0.029
			l-0.033,0.005v0c-0.053,0.009-0.104,0.019-0.156,0.029c-0.619,0.125-1.215,0.344-1.767,0.647c-0.088,0.049-0.143,0.08-0.197,0.112
			l-0.049,0.03c-0.049,0.029-0.097,0.059-0.145,0.091l-0.042,0.027l-0.152,0.102l-0.002,0.001l-0.035,0.025l-0.07,0.049L17.892,9.76
			l-0.07,0.053C17.779,9.846,17.74,9.876,17.7,9.909l-0.06,0.048l-0.132,0.11l-0.081,0.071l-0.11,0.1l-0.037,0.037l-0.044,0.041
			l-0.085,0.081v0l-0.053,0.053l-0.058,0.059c-0.031,0.033-0.068,0.069-0.104,0.107l-0.055,0.058l-0.002,0.002l-0.029,0.033
			l-0.099,0.111l-0.085,0.098c-0.033,0.039-0.068,0.08-0.102,0.122l-0.083,0.101c-0.031,0.04-0.066,0.083-0.1,0.127l-0.083,0.11
			l-0.095,0.128l-0.039,0.055l-0.044,0.061l-0.095,0.141l-0.079,0.117l-0.051,0.079l-0.044,0.071l-0.079,0.124l-0.092,0.156
			l-0.077,0.129l-0.051,0.091l-0.042,0.077l-0.053,0.095l-0.116,0.221l-0.04,0.081l-0.025,0.045l-0.035,0.071l-0.022,0.049
			l-0.048,0.099c-0.018,0.033-0.035,0.071-0.054,0.113c-0.002,0.003-0.004,0.009-0.006,0.012l-0.134-0.031
			c-0.442-0.103-0.845-0.18-1.196-0.23c-0.854-0.122-1.705-0.185-2.526-0.185c-0.345,0-0.655,0.012-0.928,0.028l-0.922,0.056
			l0.072,0.032c-0.146-0.039-0.293-0.064-0.441-0.064c-0.203,0-0.4,0.038-0.583,0.112C7.448,13.54,7.48,14.624,7.482,14.67v5.209
			c0,1.47,2.496,2.903,3.694,3.592l0.204,0.117l0.312,0.185c0.861,0.513,2.301,1.373,3.505,1.572L16.034,25.523z M18.236,11.926
			L18.236,11.926L18.236,11.926L18.236,11.926z M23.464,17.994c-0.055-0.238-0.135-0.448-0.231-0.64l0.093,0.008
			c0.654,0.058,1.227,0.176,1.703,0.355c-0.021,0.006-0.042,0.012-0.063,0.018l-0.063,0.018c-0.134,0.038-0.25,0.067-0.342,0.089
			l-0.001-0.009l-0.226,0.052c-0.237,0.063-0.464,0.117-0.668,0.164c-0.064,0.014-0.119,0.024-0.181,0.038L23.464,17.994z
			 M17.31,13.861l0.034-0.067l0.031-0.063l0.037-0.071l0.029-0.061l0.037-0.071l0.057-0.105l0.028-0.05l0.114-0.203l0.038-0.067
			l0.065-0.107l0.031-0.052l0.026-0.045l0.083-0.129l0.029-0.048c0.061-0.094,0.104-0.159,0.148-0.224l0.044-0.062
			c0.033-0.048,0.064-0.095,0.1-0.143l0.063-0.087l0.093-0.123l0.067-0.085c0.037-0.05,0.072-0.093,0.107-0.137l0.042-0.05
			c0.073-0.091,0.13-0.156,0.187-0.22l0.04-0.046l0.002-0.001l0.029-0.033l0.114-0.124l0.083-0.086
			c0.039-0.039,0.075-0.078,0.114-0.115l0.088-0.086c0.051-0.05,0.105-0.1,0.158-0.148l0.092-0.081
			c0.056-0.05,0.108-0.096,0.163-0.14l0.093-0.075c0.048-0.039,0.094-0.073,0.14-0.108l0.1-0.074
			c0.05-0.037,0.099-0.071,0.149-0.104l0.094-0.064c0.079-0.053,0.158-0.103,0.24-0.152l0.05-0.028l0.044-0.025
			c0.054-0.032,0.112-0.063,0.17-0.095l0.111-0.057c0.056-0.029,0.112-0.056,0.167-0.082l0.114-0.052l0.3-0.134h-0.001
			c0.042-0.015,0.086-0.031,0.133-0.046c0.044-0.015,0.092-0.03,0.14-0.045c0.286-0.089,0.555-0.155,0.801-0.197l0.085-0.013
			l0.051,0.032c0.584,0.33,2.417,1.629,2.021,4.703c-0.804-0.14-1.703-0.211-2.681-0.211c-0.998,0-2.097,0.075-3.268,0.22
			l-0.851,0.107c-0.195-0.069-0.389-0.137-0.582-0.201l-0.065-0.022l0.009-0.021l0.028-0.062"/>
		<path fill="#FFFFFF" d="M7.707,14.661c0,0,0,5.215,0,5.218c0,1.427,2.784,2.933,3.786,3.514c0.723,0.419,2.412,1.51,3.741,1.73
			c0.176,0.029,0.346,0.042,0.506,0.038c0.338-0.011,0.635-0.104,0.859-0.317c0-0.001,0.002-0.002,0.004-0.003
			c0.416-0.399,0.646-0.954,0.809-1.507c0.394-1.338,0.438-2.739,0.529-4.12c0.066-0.985,0.075-2.151-0.979-2.62l-6.69-2.962
			l-0.618-0.273c-0.062-0.028-0.127-0.05-0.193-0.07c-0.301-0.088-0.626-0.086-0.918,0.035c-0.005,0-0.009,0.002-0.014,0.004
			C7.668,13.692,7.707,14.661,7.707,14.661z"/>
		<path fill="#FFFFFF" d="M17.201,24.789c0.325-0.448,0.504-0.959,0.617-1.337c0.354-1.213,0.434-2.469,0.51-3.685
			c0.01-0.176,0.022-0.351,0.033-0.525c0.022-0.333,0.051-0.776-0.006-1.23l3.847-0.854l-2.597,0.186l-0.35,0.024l-1.023,0.073
			c-0.163-0.5-0.484-0.958-1.1-1.231l-5.897-2.61l-0.892-0.396c0.819-0.05,1.988-0.048,3.408,0.156
			c0.355,0.05,0.753,0.127,1.178,0.226c-0.016,0.034-0.029,0.067-0.046,0.101c-0.042,0.098-0.056,0.203-0.045,0.307
			c0.005,0.07,0.021,0.139,0.049,0.203c0.072,0.16,0.211,0.282,0.378,0.335l1.09,0.345c0.062,0.019,0.125,0.029,0.187,0.029
			c0.116,0,0.229-0.034,0.325-0.093c0.077-0.047,0.144-0.111,0.195-0.188c0.005-0.007,0.01-0.014,0.016-0.021
			c0.016-0.027,0.029-0.057,0.042-0.088c0.03-0.075,0.068-0.166,0.114-0.271c0.218,0.073,0.436,0.149,0.655,0.227
			c2.106,0.756,4.156,1.755,4.915,2.635c0.086,0.101,0.158,0.201,0.209,0.298c0.103,0.193,0.178,0.41,0.23,0.642
			c-0.064,0.013-0.126,0.024-0.183,0.034c-0.079,0.014-0.154,0.041-0.225,0.072c-0.292,0.131-0.505,0.399-0.554,0.725l-0.386,2.512
			c-0.042,0.277,0.039,0.556,0.219,0.767c0.022,0.026,0.047,0.053,0.071,0.077c0.079,0.074,0.169,0.13,0.266,0.173
			c-0.084,0.132-0.169,0.243-0.255,0.329c-0.67,0.67-3.325,2.411-5.437,2.526c0.046-0.034,0.09-0.071,0.134-0.112
			C17.01,25.034,17.109,24.914,17.201,24.789z"/>
		<path fill="#FFFFFF" d="M22.284,21.845c-0.066-0.119-0.098-0.259-0.075-0.409c0.118-0.767,0.286-1.877,0.383-2.501
			c0-0.004,0.002-0.009,0.002-0.012c0-0.001,0-0.001,0-0.001c0.03-0.19,0.141-0.349,0.297-0.446
			c0.069-0.041,0.143-0.073,0.226-0.087c0.058-0.011,0.119-0.022,0.185-0.035c0.126-0.024,0.266-0.054,0.415-0.087
			c0.207-0.047,0.436-0.102,0.677-0.166l0.001,0.008c0,0,0.23-0.046,0.564-0.139c0.024-0.006,0.046-0.011,0.068-0.019
			c0.185-0.053,0.399-0.119,0.624-0.197c0.004-0.001,0.006-0.001,0.009-0.002c0.229-0.079,0.47-0.172,0.707-0.275
			c0.116-0.053,0.235-0.102,0.348-0.161c0.088-0.044,0.175-0.086,0.259-0.131c0.024-0.013,0.049-0.025,0.074-0.04
			c0.105-0.059,0.207-0.113,0.3-0.173c0.094-0.061,0.185-0.111,0.263-0.168c0.158-0.11,0.286-0.205,0.37-0.279
			c0.059-0.048,0.101-0.082,0.12-0.099c0.002-0.001,0.003-0.004,0.007-0.007c-0.02,0.013-0.066,0.044-0.139,0.091
			c-0.09,0.064-0.227,0.145-0.394,0.237c-0.081,0.048-0.178,0.089-0.274,0.138c-0.095,0.05-0.202,0.092-0.312,0.14
			c-0.107,0.048-0.225,0.089-0.339,0.133c-0.116,0.045-0.237,0.081-0.357,0.121c-0.24,0.076-0.484,0.142-0.713,0.196
			c-0.122,0.029-0.241,0.053-0.352,0.076c-0.57-0.231-1.222-0.357-1.883-0.415c-0.569-0.96-2.496-1.986-4.577-2.791
			c2.716-0.34,4.686-0.248,6.108,0.031c0.541-3.371-1.447-4.794-2.1-5.163c0.009-0.001,0.017-0.002,0.025-0.004
			c0.077-0.015,0.154-0.029,0.229-0.039c0.083-0.01,0.164-0.023,0.241-0.027c0.077-0.003,0.151-0.013,0.218-0.011
			c0.134-0.001,0.248,0.002,0.327,0.011c0.079,0.007,0.123,0.011,0.123,0.011s-0.044-0.007-0.123-0.02
			c-0.048-0.009-0.11-0.018-0.183-0.023c-0.044-0.004-0.092-0.008-0.145-0.012c-0.033-0.003-0.066-0.003-0.104-0.003
			s-0.075,0-0.116-0.001c-0.079-0.002-0.161,0.005-0.246,0.009c-0.022,0.002-0.046,0.005-0.066,0.007
			c-0.099,0.008-0.199,0.019-0.299,0.033c-0.004,0.001-0.006,0.001-0.009,0.001c-0.053,0.008-0.105,0.015-0.158,0.024
			c-0.299,0.051-0.589,0.129-0.828,0.205c-0.051,0.015-0.102,0.031-0.146,0.046c-0.057,0.019-0.109,0.037-0.157,0.055
			c-0.168,0.062-0.273,0.109-0.273,0.109l0.005,0.012v0c-0.009,0.004-0.018,0.007-0.026,0.012c-0.039,0.018-0.079,0.036-0.118,0.054
			c-0.058,0.028-0.115,0.055-0.172,0.084c-0.04,0.021-0.079,0.04-0.118,0.061c-0.06,0.031-0.119,0.065-0.177,0.098
			c-0.032,0.019-0.063,0.036-0.096,0.056c-0.084,0.05-0.167,0.102-0.247,0.155c-0.032,0.021-0.063,0.044-0.096,0.066
			c-0.053,0.035-0.105,0.072-0.156,0.109c-0.035,0.026-0.07,0.052-0.104,0.078c-0.048,0.036-0.095,0.073-0.141,0.11
			c-0.033,0.025-0.065,0.051-0.099,0.077c-0.056,0.047-0.11,0.094-0.165,0.143c-0.033,0.028-0.065,0.057-0.099,0.086
			c-0.055,0.05-0.108,0.101-0.163,0.152c-0.028,0.029-0.059,0.057-0.086,0.086c-0.043,0.04-0.081,0.08-0.12,0.121
			c-0.029,0.029-0.058,0.06-0.086,0.089c-0.04,0.042-0.079,0.084-0.118,0.126c-0.024,0.027-0.049,0.055-0.073,0.083
			c-0.059,0.066-0.114,0.132-0.171,0.198c-0.021,0.026-0.042,0.052-0.063,0.078c-0.036,0.045-0.071,0.09-0.106,0.136
			c-0.025,0.03-0.048,0.061-0.07,0.09c-0.034,0.042-0.065,0.084-0.096,0.126c-0.022,0.029-0.044,0.058-0.064,0.088
			c-0.035,0.049-0.07,0.098-0.104,0.147c-0.015,0.021-0.03,0.042-0.044,0.063c-0.046,0.066-0.09,0.132-0.134,0.198
			c-0.016,0.027-0.033,0.053-0.05,0.08c-0.027,0.042-0.054,0.085-0.08,0.127c-0.018,0.028-0.034,0.056-0.052,0.083
			c-0.026,0.042-0.051,0.084-0.075,0.126c-0.014,0.023-0.028,0.048-0.042,0.072c-0.035,0.063-0.07,0.124-0.104,0.185
			c-0.009,0.016-0.018,0.031-0.026,0.047c-0.025,0.047-0.052,0.094-0.074,0.139c-0.013,0.023-0.024,0.045-0.035,0.068
			c-0.021,0.038-0.039,0.076-0.058,0.114c-0.011,0.02-0.021,0.041-0.032,0.062c-0.016,0.031-0.029,0.061-0.044,0.09
			c-0.005,0.011-0.011,0.022-0.016,0.033c-0.007,0.013-0.014,0.026-0.02,0.04c-0.024,0.052-0.047,0.101-0.068,0.149
			c-0.007,0.014-0.013,0.027-0.02,0.041c-0.016,0.034-0.029,0.068-0.044,0.1c-0.003,0.006-0.007,0.014-0.011,0.021
			c-0.003,0.009-0.005,0.016-0.01,0.024c-0.013,0.031-0.025,0.06-0.037,0.088c-0.006,0.012-0.011,0.023-0.015,0.034
			c-0.016,0.037-0.029,0.073-0.044,0.105c-0.019,0.049-0.051,0.089-0.089,0.121c-0.03,0.025-0.063,0.044-0.103,0.056
			c-0.007,0.002-0.014,0.004-0.021,0.006c-0.053,0.012-0.109,0.011-0.164-0.006l-1.09-0.344c-0.021-0.006-0.042-0.016-0.06-0.026
			c-0.039-0.022-0.07-0.051-0.095-0.085c-0.009-0.013-0.018-0.028-0.024-0.043c-0.026-0.054-0.037-0.116-0.03-0.178
			c0.004-0.022,0.009-0.044,0.016-0.065c0.004-0.007,0.004-0.014,0.007-0.02c0-0.003,0.002-0.005,0.004-0.008
			c0.021-0.049,0.042-0.096,0.065-0.144c0.026-0.061,0.054-0.124,0.082-0.184c0.018-0.038,0.035-0.074,0.053-0.111
			c0.015-0.031,0.03-0.061,0.044-0.09c0.02-0.041,0.039-0.082,0.059-0.121c0.022-0.043,0.044-0.083,0.064-0.125
			c0.032-0.062,0.063-0.123,0.095-0.182c0.023-0.043,0.046-0.085,0.069-0.127c0.031-0.056,0.063-0.111,0.093-0.166
			c0.024-0.043,0.049-0.084,0.074-0.125c0.031-0.052,0.062-0.105,0.091-0.155c0.026-0.042,0.051-0.081,0.077-0.122
			c0.03-0.049,0.062-0.098,0.092-0.146c0.026-0.04,0.053-0.079,0.079-0.117c0.031-0.045,0.062-0.091,0.093-0.136
			c0.026-0.039,0.055-0.076,0.081-0.112c0.032-0.044,0.063-0.087,0.095-0.129c0.026-0.037,0.053-0.071,0.079-0.106
			c0.032-0.041,0.065-0.083,0.097-0.123c0.028-0.034,0.055-0.066,0.083-0.1c0.031-0.04,0.063-0.079,0.097-0.117
			c0.028-0.033,0.055-0.063,0.083-0.095c0.031-0.037,0.064-0.074,0.098-0.11c0.028-0.03,0.055-0.06,0.083-0.089
			c0.033-0.036,0.066-0.071,0.102-0.105c0.026-0.027,0.055-0.056,0.081-0.082c0.035-0.034,0.068-0.068,0.104-0.101
			c0.028-0.025,0.055-0.052,0.081-0.076c0.035-0.033,0.07-0.065,0.105-0.097c0.026-0.023,0.053-0.047,0.079-0.069
			c0.037-0.032,0.074-0.063,0.111-0.092c0.026-0.021,0.051-0.043,0.077-0.063c0.037-0.031,0.075-0.06,0.114-0.09
			c0.024-0.018,0.049-0.038,0.072-0.055c0.04-0.031,0.08-0.059,0.121-0.088c0.021-0.016,0.046-0.033,0.066-0.048
			c0.044-0.029,0.086-0.058,0.129-0.085c0.021-0.014,0.04-0.027,0.062-0.04c0.045-0.03,0.091-0.059,0.139-0.087
			c0.016-0.009,0.031-0.02,0.049-0.03c0.053-0.032,0.105-0.061,0.158-0.09c0.009-0.005,0.02-0.012,0.03-0.018
			c0.578-0.316,1.154-0.512,1.703-0.623l0,0c0.062-0.013,0.121-0.024,0.181-0.034l0.002-0.001c0.06-0.009,0.12-0.019,0.178-0.028
			c0.002,0,0.002,0,0.002,0c0.06-0.008,0.117-0.016,0.176-0.022v0.001c0.11-0.013,0.222-0.024,0.327-0.03
			c1.556-0.096,2.71,0.398,2.71,0.398c2.892,1.446,2.973,4.475,2.836,5.883c-0.03-0.012-0.062-0.026-0.092-0.038
			c-0.191-0.082-0.376-0.147-0.534-0.202c-0.156-0.058-0.292-0.092-0.385-0.123c-0.006-0.002-0.009-0.004-0.015-0.004
			c-0.024-0.008-0.049-0.015-0.072-0.023c-0.005-0.001-0.009-0.003-0.014-0.003c-0.013-0.004-0.024-0.008-0.039-0.013
			c-0.003,0-0.005-0.002-0.005-0.002s0.002,0.001,0.002,0.002c0.005,0.001,0.055,0.02,0.141,0.053
			c0.091,0.035,0.223,0.078,0.376,0.145c0.153,0.064,0.332,0.14,0.519,0.232c0.037,0.017,0.072,0.035,0.109,0.054
			c0.058,0.029,0.115,0.06,0.176,0.092c0.097,0.05,0.191,0.105,0.286,0.163c0.204,0.122,0.399,0.256,0.571,0.391
			c0.092,0.083,0.169,0.162,0.232,0.233c0.066,0.076,0.106,0.167,0.123,0.261c0.003-0.003,0.005-0.007,0.009-0.01
			c0,0-0.002,0.017-0.006,0.044c0.007,0.074,0,0.148-0.024,0.22c-0.07,0.634-0.253,2.256-0.391,3.022
			c-0.051,0.291-0.227,0.546-0.479,0.7c-0.269,0.163-0.657,0.392-1.114,0.637c-0.092,0.049-0.185,0.098-0.281,0.148l0,0
			c-0.004,0.001-0.006,0.003-0.009,0.005c-0.104,0.053-0.209,0.107-0.316,0.161c-0.018,0.008-0.035,0.017-0.053,0.025
			c-0.097,0.047-0.195,0.096-0.296,0.144c-0.021,0.009-0.042,0.02-0.064,0.031c-0.109,0.051-0.22,0.101-0.332,0.151
			c-0.009,0.004-0.018,0.008-0.026,0.012c-0.122,0.054-0.246,0.107-0.369,0.157c-0.02,0.008-0.037,0.015-0.057,0.022
			c-0.101,0.041-0.2,0.079-0.301,0.117c-0.037,0.014-0.075,0.028-0.112,0.042c-0.083,0.03-0.165,0.058-0.248,0.085
			c-0.042,0.015-0.082,0.028-0.125,0.042c-0.082,0.026-0.165,0.051-0.247,0.075c-0.037,0.01-0.074,0.022-0.111,0.032
			c-0.084,0.023-0.169,0.043-0.249,0.062c-0.032,0.007-0.063,0.016-0.096,0.023c-0.001,0-0.003,0.001-0.003,0.001
			c-0.002,0-0.002,0-0.002,0c-0.128,0.028-0.253,0.014-0.364-0.029C22.471,22.076,22.356,21.974,22.284,21.845z"/>
		<path fill="#040000" d="M10.133,14.334c0,0,0.257,0.105,0.703,0.289c0.446,0.188,1.086,0.448,1.848,0.775
			c0.761,0.328,1.652,0.702,2.602,1.117c0.475,0.209,0.967,0.425,1.466,0.644c0.134,0.063,0.26,0.16,0.352,0.284
			c0.092,0.123,0.149,0.266,0.187,0.406c0.075,0.284,0.081,0.568,0.081,0.849c-0.02,0.562-0.069,1.105-0.104,1.65
			c-0.038,0.544-0.089,1.08-0.17,1.595c-0.079,0.517-0.2,1.009-0.358,1.463c-0.081,0.227-0.178,0.444-0.301,0.639
			c-0.063,0.097-0.132,0.187-0.209,0.271c-0.02,0.022-0.039,0.039-0.059,0.058c-0.021,0.021-0.047,0.042-0.073,0.058
			c-0.053,0.032-0.107,0.051-0.162,0.064c-0.028,0.005-0.055,0.007-0.081,0.011c-0.176,0.022-0.339,0.006-0.495-0.02
			c-0.013-0.002-0.025-0.004-0.039-0.006c-0.188-0.037-0.36-0.089-0.522-0.145c-0.003,0-0.007-0.002-0.01-0.004
			c-0.316-0.11-0.58-0.232-0.795-0.336c-0.218-0.105-0.385-0.198-0.497-0.26c-0.114-0.063-0.175-0.097-0.175-0.097
			s0.246,0.126,0.689,0.32c0.198,0.086,0.441,0.185,0.721,0.274c0.03,0.01,0.06,0.02,0.092,0.03
			c0.147,0.043,0.306,0.083,0.471,0.111c0.016,0.002,0.03,0.006,0.044,0.009c0.146,0.02,0.304,0.035,0.455,0.018
			c0.039-0.004,0.076-0.009,0.112-0.018c0.046-0.012,0.09-0.029,0.127-0.053c0.02-0.012,0.035-0.025,0.051-0.042
			c0.018-0.02,0.039-0.04,0.055-0.058c0.066-0.076,0.13-0.163,0.185-0.255c0.112-0.186,0.198-0.396,0.272-0.618
			c0.143-0.445,0.244-0.933,0.321-1.44c0.076-0.509,0.122-1.04,0.157-1.581c0.029-0.541,0.075-1.097,0.088-1.64
			c0.003-0.271-0.002-0.545-0.067-0.794c-0.06-0.252-0.2-0.462-0.427-0.565c-0.496-0.223-0.982-0.441-1.454-0.653
			c-0.945-0.422-1.822-0.832-2.577-1.175c-0.754-0.345-1.376-0.644-1.813-0.847C10.383,14.453,10.133,14.334,10.133,14.334z"/>
	</g>
</g>
</svg>
